<mxfile host="app.diagrams.net" modified="2024-04-28T23:20:42.729Z" agent="Mozilla/5.0 (Macintosh; Intel Mac OS X 10_15_7) AppleWebKit/605.1.15 (KHTML, like Gecko) Version/17.4.1 Safari/605.1.15" etag="rk22Q7I9v4NQxaQN89QO" version="24.3.1" type="dropbox">
  <diagram name="Page-1" id="KJd1OfZhu7jcu55I__z_">
    <mxGraphModel dx="882" dy="660" grid="1" gridSize="10" guides="1" tooltips="1" connect="1" arrows="1" fold="1" page="1" pageScale="1" pageWidth="850" pageHeight="1100" math="0" shadow="0">
      <root>
        <mxCell id="0" />
        <mxCell id="1" parent="0" />
        <mxCell id="ItnmL5__fp8c04N759eW-1" value="Audio Framer&lt;div&gt;+&lt;/div&gt;&lt;div&gt;Opus&lt;div&gt;voice encoder&lt;/div&gt;&lt;/div&gt;" style="rounded=0;whiteSpace=wrap;html=1;" parent="1" vertex="1">
          <mxGeometry x="200" y="250" width="120" height="90" as="geometry" />
        </mxCell>
        <mxCell id="ItnmL5__fp8c04N759eW-2" value="" style="endArrow=classic;html=1;rounded=0;" parent="1" edge="1">
          <mxGeometry width="50" height="50" relative="1" as="geometry">
            <mxPoint x="110" y="270" as="sourcePoint" />
            <mxPoint x="200" y="270.02" as="targetPoint" />
          </mxGeometry>
        </mxCell>
        <mxCell id="ItnmL5__fp8c04N759eW-3" value="" style="endArrow=classic;html=1;rounded=0;" parent="1" edge="1">
          <mxGeometry width="50" height="50" relative="1" as="geometry">
            <mxPoint x="110" y="310" as="sourcePoint" />
            <mxPoint x="200" y="310.02" as="targetPoint" />
          </mxGeometry>
        </mxCell>
        <mxCell id="ItnmL5__fp8c04N759eW-6" value="&lt;sup&gt;samples&lt;/sup&gt;" style="edgeLabel;html=1;align=center;verticalAlign=middle;resizable=0;points=[];" parent="ItnmL5__fp8c04N759eW-3" vertex="1" connectable="0">
          <mxGeometry x="-0.0254" relative="1" as="geometry">
            <mxPoint as="offset" />
          </mxGeometry>
        </mxCell>
        <mxCell id="ItnmL5__fp8c04N759eW-4" value="Mic Audio" style="text;html=1;align=center;verticalAlign=middle;resizable=0;points=[];autosize=1;strokeColor=none;fillColor=none;" parent="1" vertex="1">
          <mxGeometry x="40" y="293" width="80" height="30" as="geometry" />
        </mxCell>
        <mxCell id="ItnmL5__fp8c04N759eW-5" value="PTT" style="text;html=1;align=right;verticalAlign=middle;resizable=0;points=[];autosize=1;strokeColor=none;fillColor=none;" parent="1" vertex="1">
          <mxGeometry x="55" y="254" width="50" height="30" as="geometry" />
        </mxCell>
        <mxCell id="ItnmL5__fp8c04N759eW-10" value="" style="sketch=0;outlineConnect=0;fontColor=#232F3E;gradientColor=none;strokeColor=#232F3E;fillColor=#ffffff;dashed=0;verticalLabelPosition=bottom;verticalAlign=top;align=center;html=1;fontSize=12;fontStyle=0;aspect=fixed;shape=mxgraph.aws4.resourceIcon;resIcon=mxgraph.aws4.queue;" parent="1" vertex="1">
          <mxGeometry x="330" y="370" width="80" height="80" as="geometry" />
        </mxCell>
        <mxCell id="ItnmL5__fp8c04N759eW-12" value="" style="rounded=0;whiteSpace=wrap;html=1;strokeWidth=2;" parent="1" vertex="1">
          <mxGeometry x="380" y="280" width="20" height="40" as="geometry" />
        </mxCell>
        <mxCell id="ItnmL5__fp8c04N759eW-16" value="" style="sketch=0;outlineConnect=0;fontColor=#232F3E;gradientColor=none;strokeColor=#232F3E;fillColor=#ffffff;dashed=0;verticalLabelPosition=bottom;verticalAlign=top;align=center;html=1;fontSize=12;fontStyle=0;aspect=fixed;shape=mxgraph.aws4.resourceIcon;resIcon=mxgraph.aws4.queue;" parent="1" vertex="1">
          <mxGeometry x="330" y="450" width="80" height="80" as="geometry" />
        </mxCell>
        <mxCell id="ItnmL5__fp8c04N759eW-18" value="MUX" style="shape=trapezoid;perimeter=trapezoidPerimeter;whiteSpace=wrap;html=1;fixedSize=1;rotation=90;movableLabel=0;rotatable=0;" parent="1" vertex="1">
          <mxGeometry x="320.16" y="412.97" width="361.88" height="42.19" as="geometry" />
        </mxCell>
        <mxCell id="ItnmL5__fp8c04N759eW-19" value="" style="endArrow=classic;html=1;rounded=0;strokeWidth=2;" parent="1" edge="1">
          <mxGeometry relative="1" as="geometry">
            <mxPoint x="400" y="290" as="sourcePoint" />
            <mxPoint x="480" y="290" as="targetPoint" />
          </mxGeometry>
        </mxCell>
        <mxCell id="ItnmL5__fp8c04N759eW-20" value="&lt;sup&gt;packets&lt;/sup&gt;" style="edgeLabel;resizable=0;html=1;;align=center;verticalAlign=middle;" parent="ItnmL5__fp8c04N759eW-19" connectable="0" vertex="1">
          <mxGeometry relative="1" as="geometry" />
        </mxCell>
        <mxCell id="ItnmL5__fp8c04N759eW-21" value="" style="endArrow=classic;html=1;rounded=0;strokeWidth=2;" parent="1" edge="1">
          <mxGeometry relative="1" as="geometry">
            <mxPoint x="400" y="399.65999999999997" as="sourcePoint" />
            <mxPoint x="480" y="399.65999999999997" as="targetPoint" />
          </mxGeometry>
        </mxCell>
        <mxCell id="ItnmL5__fp8c04N759eW-22" value="&lt;sup&gt;packets&lt;/sup&gt;" style="edgeLabel;resizable=0;html=1;;align=center;verticalAlign=middle;" parent="ItnmL5__fp8c04N759eW-21" connectable="0" vertex="1">
          <mxGeometry relative="1" as="geometry" />
        </mxCell>
        <mxCell id="ItnmL5__fp8c04N759eW-23" value="" style="endArrow=classic;html=1;rounded=0;strokeWidth=2;" parent="1" edge="1">
          <mxGeometry relative="1" as="geometry">
            <mxPoint x="400" y="480" as="sourcePoint" />
            <mxPoint x="480" y="480" as="targetPoint" />
          </mxGeometry>
        </mxCell>
        <mxCell id="ItnmL5__fp8c04N759eW-24" value="&lt;sup&gt;packets&lt;/sup&gt;" style="edgeLabel;resizable=0;html=1;;align=center;verticalAlign=middle;" parent="ItnmL5__fp8c04N759eW-23" connectable="0" vertex="1">
          <mxGeometry relative="1" as="geometry" />
        </mxCell>
        <mxCell id="ItnmL5__fp8c04N759eW-27" value="" style="endArrow=classic;html=1;rounded=0;" parent="1" edge="1">
          <mxGeometry relative="1" as="geometry">
            <mxPoint x="400" y="310" as="sourcePoint" />
            <mxPoint x="480" y="310" as="targetPoint" />
          </mxGeometry>
        </mxCell>
        <mxCell id="ItnmL5__fp8c04N759eW-28" value="&lt;sup&gt;status&lt;/sup&gt;" style="edgeLabel;resizable=0;html=1;;align=center;verticalAlign=middle;" parent="ItnmL5__fp8c04N759eW-27" connectable="0" vertex="1">
          <mxGeometry relative="1" as="geometry" />
        </mxCell>
        <mxCell id="ItnmL5__fp8c04N759eW-29" value="" style="endArrow=classic;html=1;rounded=0;" parent="1" edge="1">
          <mxGeometry relative="1" as="geometry">
            <mxPoint x="400" y="420" as="sourcePoint" />
            <mxPoint x="480" y="420" as="targetPoint" />
          </mxGeometry>
        </mxCell>
        <mxCell id="ItnmL5__fp8c04N759eW-30" value="&lt;sup&gt;status&lt;/sup&gt;" style="edgeLabel;resizable=0;html=1;;align=center;verticalAlign=middle;" parent="ItnmL5__fp8c04N759eW-29" connectable="0" vertex="1">
          <mxGeometry relative="1" as="geometry" />
        </mxCell>
        <mxCell id="ItnmL5__fp8c04N759eW-31" value="" style="endArrow=classic;html=1;rounded=0;" parent="1" edge="1">
          <mxGeometry relative="1" as="geometry">
            <mxPoint x="400" y="500" as="sourcePoint" />
            <mxPoint x="480" y="500" as="targetPoint" />
          </mxGeometry>
        </mxCell>
        <mxCell id="ItnmL5__fp8c04N759eW-32" value="&lt;sup&gt;status&lt;/sup&gt;" style="edgeLabel;resizable=0;html=1;;align=center;verticalAlign=middle;" parent="ItnmL5__fp8c04N759eW-31" connectable="0" vertex="1">
          <mxGeometry relative="1" as="geometry" />
        </mxCell>
        <mxCell id="4Ef7QQZ2EefWwen7_ceo-1" value="" style="endArrow=classic;html=1;rounded=0;strokeWidth=2;" edge="1" parent="1">
          <mxGeometry relative="1" as="geometry">
            <mxPoint x="320" y="299.65999999999997" as="sourcePoint" />
            <mxPoint x="380" y="299.65999999999997" as="targetPoint" />
          </mxGeometry>
        </mxCell>
        <mxCell id="4Ef7QQZ2EefWwen7_ceo-2" value="&lt;sup&gt;packets&lt;/sup&gt;" style="edgeLabel;resizable=0;html=1;;align=center;verticalAlign=middle;" connectable="0" vertex="1" parent="4Ef7QQZ2EefWwen7_ceo-1">
          <mxGeometry relative="1" as="geometry" />
        </mxCell>
        <mxCell id="4Ef7QQZ2EefWwen7_ceo-3" value="" style="sketch=0;outlineConnect=0;fontColor=#232F3E;gradientColor=none;strokeColor=#232F3E;fillColor=#ffffff;dashed=0;verticalLabelPosition=bottom;verticalAlign=top;align=center;html=1;fontSize=12;fontStyle=0;aspect=fixed;shape=mxgraph.aws4.resourceIcon;resIcon=mxgraph.aws4.queue;" vertex="1" parent="1">
          <mxGeometry x="330" y="529" width="80" height="80" as="geometry" />
        </mxCell>
        <mxCell id="4Ef7QQZ2EefWwen7_ceo-4" value="" style="endArrow=classic;html=1;rounded=0;strokeWidth=2;startArrow=classic;startFill=1;" edge="1" parent="1">
          <mxGeometry relative="1" as="geometry">
            <mxPoint x="400" y="559" as="sourcePoint" />
            <mxPoint x="480" y="559" as="targetPoint" />
          </mxGeometry>
        </mxCell>
        <mxCell id="4Ef7QQZ2EefWwen7_ceo-5" value="&lt;sup&gt;packets&lt;/sup&gt;" style="edgeLabel;resizable=0;html=1;;align=center;verticalAlign=middle;" connectable="0" vertex="1" parent="4Ef7QQZ2EefWwen7_ceo-4">
          <mxGeometry relative="1" as="geometry" />
        </mxCell>
        <mxCell id="4Ef7QQZ2EefWwen7_ceo-6" value="" style="endArrow=classic;html=1;rounded=0;" edge="1" parent="1">
          <mxGeometry relative="1" as="geometry">
            <mxPoint x="400" y="579" as="sourcePoint" />
            <mxPoint x="480" y="579" as="targetPoint" />
          </mxGeometry>
        </mxCell>
        <mxCell id="4Ef7QQZ2EefWwen7_ceo-7" value="&lt;sup&gt;status&lt;/sup&gt;" style="edgeLabel;resizable=0;html=1;;align=center;verticalAlign=middle;" connectable="0" vertex="1" parent="4Ef7QQZ2EefWwen7_ceo-6">
          <mxGeometry relative="1" as="geometry" />
        </mxCell>
        <mxCell id="4Ef7QQZ2EefWwen7_ceo-8" value="" style="endArrow=classic;html=1;rounded=0;strokeWidth=2;" edge="1" parent="1">
          <mxGeometry relative="1" as="geometry">
            <mxPoint x="280" y="409.65999999999997" as="sourcePoint" />
            <mxPoint x="340" y="409.65999999999997" as="targetPoint" />
          </mxGeometry>
        </mxCell>
        <mxCell id="4Ef7QQZ2EefWwen7_ceo-9" value="&lt;sup&gt;packets&lt;/sup&gt;" style="edgeLabel;resizable=0;html=1;;align=center;verticalAlign=middle;" connectable="0" vertex="1" parent="4Ef7QQZ2EefWwen7_ceo-8">
          <mxGeometry relative="1" as="geometry" />
        </mxCell>
        <mxCell id="4Ef7QQZ2EefWwen7_ceo-10" value="" style="endArrow=classic;html=1;rounded=0;strokeWidth=2;" edge="1" parent="1">
          <mxGeometry relative="1" as="geometry">
            <mxPoint x="280" y="488.65999999999997" as="sourcePoint" />
            <mxPoint x="340" y="488.65999999999997" as="targetPoint" />
          </mxGeometry>
        </mxCell>
        <mxCell id="4Ef7QQZ2EefWwen7_ceo-11" value="&lt;sup&gt;packets&lt;/sup&gt;" style="edgeLabel;resizable=0;html=1;;align=center;verticalAlign=middle;" connectable="0" vertex="1" parent="4Ef7QQZ2EefWwen7_ceo-10">
          <mxGeometry relative="1" as="geometry" />
        </mxCell>
        <mxCell id="4Ef7QQZ2EefWwen7_ceo-12" value="" style="endArrow=classic;html=1;rounded=0;strokeWidth=2;" edge="1" parent="1">
          <mxGeometry relative="1" as="geometry">
            <mxPoint x="280" y="569.66" as="sourcePoint" />
            <mxPoint x="340" y="569.66" as="targetPoint" />
          </mxGeometry>
        </mxCell>
        <mxCell id="4Ef7QQZ2EefWwen7_ceo-13" value="&lt;sup&gt;packets&lt;/sup&gt;" style="edgeLabel;resizable=0;html=1;;align=center;verticalAlign=middle;" connectable="0" vertex="1" parent="4Ef7QQZ2EefWwen7_ceo-12">
          <mxGeometry relative="1" as="geometry" />
        </mxCell>
        <mxCell id="4Ef7QQZ2EefWwen7_ceo-14" value="&lt;font style=&quot;font-size: 14px;&quot;&gt;AAAAA Responses&lt;/font&gt;&lt;div&gt;&lt;font style=&quot;font-size: 10px;&quot;&gt;&amp;lt; 1 frame long&lt;/font&gt;&lt;/div&gt;&lt;div&gt;&lt;font style=&quot;font-size: 10px;&quot;&gt;transmit ASAP&lt;/font&gt;&lt;/div&gt;" style="text;html=1;align=center;verticalAlign=middle;whiteSpace=wrap;rounded=0;" vertex="1" parent="1">
          <mxGeometry x="140" y="406" width="150" height="30" as="geometry" />
        </mxCell>
        <mxCell id="4Ef7QQZ2EefWwen7_ceo-15" value="&lt;font style=&quot;font-size: 14px;&quot;&gt;Background Data&lt;/font&gt;&lt;div&gt;&lt;span style=&quot;font-size: 10px;&quot;&gt;up to 1500 bytes payload&lt;/span&gt;&lt;/div&gt;&lt;div&gt;&lt;span style=&quot;font-size: 10px;&quot;&gt;lowest priority&lt;/span&gt;&lt;br&gt;&lt;/div&gt;&lt;div&gt;&lt;font size=&quot;1&quot;&gt;large packet may be aborted for other traffic&lt;/font&gt;&lt;/div&gt;" style="text;html=1;align=center;verticalAlign=middle;whiteSpace=wrap;rounded=0;" vertex="1" parent="1">
          <mxGeometry x="121" y="573" width="200" height="30" as="geometry" />
        </mxCell>
        <mxCell id="4Ef7QQZ2EefWwen7_ceo-16" value="&lt;font style=&quot;font-size: 14px;&quot;&gt;Interactive Short Messages&lt;/font&gt;&lt;div&gt;&lt;font style=&quot;font-size: 10px;&quot;&gt;up to 2 frames long&lt;/font&gt;&lt;/div&gt;&lt;div&gt;&lt;font style=&quot;font-size: 10px;&quot;&gt;OK to interrupt voice&lt;/font&gt;&lt;/div&gt;" style="text;html=1;align=center;verticalAlign=middle;whiteSpace=wrap;rounded=0;" vertex="1" parent="1">
          <mxGeometry x="88" y="484.25" width="206" height="30" as="geometry" />
        </mxCell>
        <mxCell id="4Ef7QQZ2EefWwen7_ceo-17" value="Voice Frame Buffer" style="text;html=1;align=center;verticalAlign=middle;whiteSpace=wrap;rounded=0;" vertex="1" parent="1">
          <mxGeometry x="360" y="329" width="60" height="30" as="geometry" />
        </mxCell>
        <mxCell id="4Ef7QQZ2EefWwen7_ceo-18" value="AAAAA Queue" style="text;html=1;align=center;verticalAlign=middle;whiteSpace=wrap;rounded=0;" vertex="1" parent="1">
          <mxGeometry x="340" y="429" width="60" height="30" as="geometry" />
        </mxCell>
        <mxCell id="4Ef7QQZ2EefWwen7_ceo-20" value="Message&lt;div&gt;Queue&lt;/div&gt;" style="text;html=1;align=center;verticalAlign=middle;whiteSpace=wrap;rounded=0;" vertex="1" parent="1">
          <mxGeometry x="340" y="510" width="60" height="30" as="geometry" />
        </mxCell>
        <mxCell id="4Ef7QQZ2EefWwen7_ceo-22" value="Data Queue" style="text;html=1;align=center;verticalAlign=middle;whiteSpace=wrap;rounded=0;" vertex="1" parent="1">
          <mxGeometry x="340" y="590" width="60" height="30" as="geometry" />
        </mxCell>
        <mxCell id="4Ef7QQZ2EefWwen7_ceo-23" value="40ms&lt;div&gt;frame&lt;/div&gt;&lt;div&gt;timer&lt;/div&gt;" style="ellipse;whiteSpace=wrap;html=1;aspect=fixed;" vertex="1" parent="1">
          <mxGeometry x="350" y="150" width="80" height="80" as="geometry" />
        </mxCell>
        <mxCell id="4Ef7QQZ2EefWwen7_ceo-26" value="" style="endArrow=classic;html=1;rounded=0;" edge="1" parent="1">
          <mxGeometry width="50" height="50" relative="1" as="geometry">
            <mxPoint x="160" y="270" as="sourcePoint" />
            <mxPoint x="350" y="190" as="targetPoint" />
            <Array as="points">
              <mxPoint x="160" y="190" />
            </Array>
          </mxGeometry>
        </mxCell>
        <mxCell id="4Ef7QQZ2EefWwen7_ceo-28" value="" style="endArrow=classic;html=1;rounded=0;exitX=1;exitY=0.5;exitDx=0;exitDy=0;" edge="1" parent="1" source="4Ef7QQZ2EefWwen7_ceo-23" target="ItnmL5__fp8c04N759eW-18">
          <mxGeometry width="50" height="50" relative="1" as="geometry">
            <mxPoint x="460" y="190" as="sourcePoint" />
            <mxPoint x="515.0999999999999" y="260.49" as="targetPoint" />
            <Array as="points">
              <mxPoint x="498" y="190" />
            </Array>
          </mxGeometry>
        </mxCell>
        <mxCell id="4Ef7QQZ2EefWwen7_ceo-31" value="Data Packet Buffer" style="rounded=0;whiteSpace=wrap;html=1;" vertex="1" parent="1">
          <mxGeometry x="438.13" y="650" width="120" height="41.25" as="geometry" />
        </mxCell>
        <mxCell id="4Ef7QQZ2EefWwen7_ceo-32" value="" style="endArrow=classic;startArrow=classic;html=1;rounded=0;strokeWidth=2;" edge="1" parent="1" target="ItnmL5__fp8c04N759eW-18">
          <mxGeometry width="50" height="50" relative="1" as="geometry">
            <mxPoint x="500" y="650" as="sourcePoint" />
            <mxPoint x="550" y="600" as="targetPoint" />
          </mxGeometry>
        </mxCell>
        <mxCell id="4Ef7QQZ2EefWwen7_ceo-33" value="" style="endArrow=classic;html=1;rounded=0;exitX=0.5;exitY=0;exitDx=0;exitDy=0;strokeWidth=4;" edge="1" parent="1" source="ItnmL5__fp8c04N759eW-18" target="4Ef7QQZ2EefWwen7_ceo-34">
          <mxGeometry width="50" height="50" relative="1" as="geometry">
            <mxPoint x="550" y="440" as="sourcePoint" />
            <mxPoint x="560" y="434" as="targetPoint" />
            <Array as="points" />
          </mxGeometry>
        </mxCell>
        <mxCell id="4Ef7QQZ2EefWwen7_ceo-34" value="&lt;font style=&quot;font-size: 16px;&quot;&gt;One Frame every 40ms while transmitting&lt;/font&gt;" style="text;html=1;align=center;verticalAlign=middle;whiteSpace=wrap;rounded=0;" vertex="1" parent="1">
          <mxGeometry x="570" y="419.06" width="180" height="30" as="geometry" />
        </mxCell>
        <mxCell id="4Ef7QQZ2EefWwen7_ceo-35" value="" style="endArrow=classic;html=1;rounded=0;exitX=0.711;exitY=0.025;exitDx=0;exitDy=0;exitPerimeter=0;" edge="1" parent="1">
          <mxGeometry width="50" height="50" relative="1" as="geometry">
            <mxPoint x="521.1402500000004" y="491.4216799999999" as="sourcePoint" />
            <mxPoint x="570" y="491" as="targetPoint" />
            <Array as="points" />
          </mxGeometry>
        </mxCell>
        <mxCell id="4Ef7QQZ2EefWwen7_ceo-37" value="Transmitter Enable" style="text;html=1;align=center;verticalAlign=middle;whiteSpace=wrap;rounded=0;" vertex="1" parent="1">
          <mxGeometry x="565" y="477" width="120" height="30" as="geometry" />
        </mxCell>
        <mxCell id="4Ef7QQZ2EefWwen7_ceo-38" value="" style="endArrow=classic;html=1;rounded=0;exitX=0.711;exitY=0.025;exitDx=0;exitDy=0;exitPerimeter=0;" edge="1" parent="1">
          <mxGeometry width="50" height="50" relative="1" as="geometry">
            <mxPoint x="521" y="530" as="sourcePoint" />
            <mxPoint x="570" y="530" as="targetPoint" />
            <Array as="points" />
          </mxGeometry>
        </mxCell>
        <mxCell id="4Ef7QQZ2EefWwen7_ceo-39" value="EOT" style="text;html=1;align=center;verticalAlign=middle;whiteSpace=wrap;rounded=0;" vertex="1" parent="1">
          <mxGeometry x="565" y="516" width="45" height="30" as="geometry" />
        </mxCell>
        <mxCell id="4Ef7QQZ2EefWwen7_ceo-40" value="" style="endArrow=classic;html=1;rounded=0;exitX=0.711;exitY=0.025;exitDx=0;exitDy=0;exitPerimeter=0;" edge="1" parent="1">
          <mxGeometry width="50" height="50" relative="1" as="geometry">
            <mxPoint x="521" y="567" as="sourcePoint" />
            <mxPoint x="570" y="567" as="targetPoint" />
            <Array as="points" />
          </mxGeometry>
        </mxCell>
        <mxCell id="4Ef7QQZ2EefWwen7_ceo-41" value="Preamble Enable&lt;div&gt;&lt;br&gt;&lt;/div&gt;" style="text;html=1;align=center;verticalAlign=middle;whiteSpace=wrap;rounded=0;" vertex="1" parent="1">
          <mxGeometry x="565" y="560" width="115" height="30" as="geometry" />
        </mxCell>
      </root>
    </mxGraphModel>
  </diagram>
</mxfile>
